<mxfile host="app.diagrams.net" modified="2023-12-14T04:24:59.406Z" agent="Mozilla/5.0 (Macintosh; Intel Mac OS X 10_15_7) AppleWebKit/537.36 (KHTML, like Gecko) Chrome/119.0.0.0 Safari/537.36" etag="oDCegvoSuG3v-avTNBe8" version="22.1.8" type="github">
  <diagram name="Page-1" id="IosD0_mF_8UIWhoFX1js">
    <mxGraphModel dx="1219" dy="1107" grid="1" gridSize="10" guides="1" tooltips="1" connect="1" arrows="1" fold="1" page="1" pageScale="1" pageWidth="1169" pageHeight="827" math="0" shadow="0">
      <root>
        <mxCell id="0" />
        <mxCell id="1" parent="0" />
        <mxCell id="FbDLnIFU_nRUQWvgwDb_-1" value="&lt;font style=&quot;font-size: 26px;&quot;&gt;Machine Learning Types&lt;/font&gt;" style="rounded=1;whiteSpace=wrap;html=1;fillColor=#0050ef;fontColor=#ffffff;strokeColor=#001DBC;shadow=1;" vertex="1" parent="1">
          <mxGeometry x="470" y="130" width="330" height="60" as="geometry" />
        </mxCell>
        <mxCell id="FbDLnIFU_nRUQWvgwDb_-2" value="&lt;font style=&quot;font-size: 26px;&quot;&gt;Unsupervised Learning&lt;/font&gt;" style="rounded=1;whiteSpace=wrap;html=1;fillColor=#60a917;fontColor=#ffffff;strokeColor=#2D7600;shadow=1;glass=0;" vertex="1" parent="1">
          <mxGeometry x="680" y="310" width="330" height="60" as="geometry" />
        </mxCell>
        <mxCell id="FbDLnIFU_nRUQWvgwDb_-3" value="&lt;font style=&quot;font-size: 26px;&quot;&gt;Supervised Learning&lt;/font&gt;&lt;span style=&quot;font-size: medium; text-align: start;&quot;&gt;&lt;/span&gt;" style="rounded=1;whiteSpace=wrap;html=1;fillColor=#60a917;fontColor=#ffffff;strokeColor=#2D7600;shadow=1;" vertex="1" parent="1">
          <mxGeometry x="255" y="310" width="330" height="60" as="geometry" />
        </mxCell>
        <mxCell id="FbDLnIFU_nRUQWvgwDb_-4" value="&lt;font style=&quot;font-size: 26px;&quot;&gt;Reinforcement Learning&lt;/font&gt;" style="rounded=1;whiteSpace=wrap;html=1;shadow=1;fillColor=#d5e8d4;gradientColor=#97d077;strokeColor=#82b366;" vertex="1" parent="1">
          <mxGeometry x="255" y="440" width="330" height="60" as="geometry" />
        </mxCell>
        <mxCell id="FbDLnIFU_nRUQWvgwDb_-5" value="&lt;font style=&quot;font-size: 26px;&quot;&gt;Transfer Learning&lt;/font&gt;" style="rounded=1;whiteSpace=wrap;html=1;shadow=1;fillColor=#ffcccc;strokeColor=#36393d;" vertex="1" parent="1">
          <mxGeometry x="255" y="570" width="330" height="60" as="geometry" />
        </mxCell>
        <mxCell id="FbDLnIFU_nRUQWvgwDb_-6" value="&lt;font style=&quot;font-size: 26px;&quot;&gt;Semi-supervised Learning&lt;/font&gt;" style="rounded=1;whiteSpace=wrap;html=1;shadow=1;fillColor=#ffe6cc;strokeColor=#d79b00;" vertex="1" parent="1">
          <mxGeometry x="255" y="700" width="330" height="60" as="geometry" />
        </mxCell>
        <mxCell id="FbDLnIFU_nRUQWvgwDb_-7" value="&lt;font style=&quot;font-size: 26px;&quot;&gt;Generative Adversarial Networks (GANs)&lt;/font&gt;" style="rounded=1;whiteSpace=wrap;html=1;shadow=1;fillColor=#f8cecc;gradientColor=#ea6b66;strokeColor=#b85450;" vertex="1" parent="1">
          <mxGeometry x="255" y="830" width="330" height="60" as="geometry" />
        </mxCell>
        <mxCell id="FbDLnIFU_nRUQWvgwDb_-9" value="" style="endArrow=classic;html=1;rounded=0;edgeStyle=orthogonalEdgeStyle;exitX=0.342;exitY=1;exitDx=0;exitDy=0;exitPerimeter=0;entryX=0.5;entryY=0;entryDx=0;entryDy=0;" edge="1" parent="1" source="FbDLnIFU_nRUQWvgwDb_-1" target="FbDLnIFU_nRUQWvgwDb_-3">
          <mxGeometry width="50" height="50" relative="1" as="geometry">
            <mxPoint x="620" y="270" as="sourcePoint" />
            <mxPoint x="670" y="220" as="targetPoint" />
            <Array as="points">
              <mxPoint x="640" y="190" />
              <mxPoint x="640" y="250" />
              <mxPoint x="420" y="250" />
            </Array>
          </mxGeometry>
        </mxCell>
        <mxCell id="FbDLnIFU_nRUQWvgwDb_-10" value="" style="endArrow=classic;html=1;rounded=0;edgeStyle=orthogonalEdgeStyle;entryX=0.5;entryY=0;entryDx=0;entryDy=0;" edge="1" parent="1">
          <mxGeometry width="50" height="50" relative="1" as="geometry">
            <mxPoint x="640" y="250" as="sourcePoint" />
            <mxPoint x="880" y="310" as="targetPoint" />
          </mxGeometry>
        </mxCell>
        <mxCell id="FbDLnIFU_nRUQWvgwDb_-11" value="" style="edgeStyle=none;orthogonalLoop=1;jettySize=auto;html=1;rounded=0;exitX=0.5;exitY=1;exitDx=0;exitDy=0;entryX=0.5;entryY=0;entryDx=0;entryDy=0;" edge="1" parent="1" source="FbDLnIFU_nRUQWvgwDb_-3" target="FbDLnIFU_nRUQWvgwDb_-4">
          <mxGeometry width="100" relative="1" as="geometry">
            <mxPoint x="300" y="420" as="sourcePoint" />
            <mxPoint x="400" y="420" as="targetPoint" />
            <Array as="points" />
          </mxGeometry>
        </mxCell>
        <mxCell id="FbDLnIFU_nRUQWvgwDb_-12" value="" style="edgeStyle=none;orthogonalLoop=1;jettySize=auto;html=1;rounded=0;exitX=0.5;exitY=1;exitDx=0;exitDy=0;entryX=0.5;entryY=0;entryDx=0;entryDy=0;" edge="1" parent="1">
          <mxGeometry width="100" relative="1" as="geometry">
            <mxPoint x="421" y="500" as="sourcePoint" />
            <mxPoint x="421" y="570" as="targetPoint" />
            <Array as="points" />
          </mxGeometry>
        </mxCell>
        <mxCell id="FbDLnIFU_nRUQWvgwDb_-13" value="" style="edgeStyle=none;orthogonalLoop=1;jettySize=auto;html=1;rounded=0;exitX=0.5;exitY=1;exitDx=0;exitDy=0;entryX=0.5;entryY=0;entryDx=0;entryDy=0;" edge="1" parent="1">
          <mxGeometry width="100" relative="1" as="geometry">
            <mxPoint x="420" y="630" as="sourcePoint" />
            <mxPoint x="420" y="700" as="targetPoint" />
            <Array as="points" />
          </mxGeometry>
        </mxCell>
        <mxCell id="FbDLnIFU_nRUQWvgwDb_-14" value="" style="edgeStyle=none;orthogonalLoop=1;jettySize=auto;html=1;rounded=0;exitX=0.5;exitY=1;exitDx=0;exitDy=0;entryX=0.5;entryY=0;entryDx=0;entryDy=0;" edge="1" parent="1">
          <mxGeometry width="100" relative="1" as="geometry">
            <mxPoint x="420" y="760" as="sourcePoint" />
            <mxPoint x="420" y="830" as="targetPoint" />
            <Array as="points" />
          </mxGeometry>
        </mxCell>
      </root>
    </mxGraphModel>
  </diagram>
</mxfile>
